# xmcd
#
# Track frame offsets: 
#        150
#        21748
#        30250
#        52545
#        69120
#        79320
#        104203
#        119470
#        141538
#        152348
#        180310
#        206825
#        227925
#
# Disc length: 3687 seconds
#
# Revision: 0
# Processed by: cddbd v1.5.1PL2 Copyright (c) Steve Scherf et al.
# Submitted via: ExactAudioCopy v0.95b1
#
DISCID=ae0e650d
DTITLE=Steve Stefanowicz - On The Feast Of Steven
DYEAR=1995
DGENRE=Christmas
TTITLE0=It Came Upon A Midnight Clear
TTITLE1=Bring A Torch
TTITLE2=The Little Drummer Boy
TTITLE3=I Wonder As I Wander
TTITLE4=Rockin' Around The Christmas Tree
TTITLE5=Christmas In The Trenches
TTITLE6=The First Noel
TTITLE7=I'll Be Home For Christmas
TTITLE8=The Coventry Carol
TTITLE9=Merry Christmas Baby
TTITLE10=Have Yourself A Merry Little Christmas
TTITLE11=Silent Night
TTITLE12=We Three Kings
EXTD=
EXTT0=
EXTT1=
EXTT2=
EXTT3=
EXTT4=
EXTT5=
EXTT6=
EXTT7=
EXTT8=
EXTT9=
EXTT10=
EXTT11=
EXTT12=
PLAYORDER=
